<?xml version="1.0" standalone="no"?>
<!DOCTYPE svg PUBLIC "-//W3C//DTD SVG 20010904//EN"
 "http://www.w3.org/TR/2001/REC-SVG-20010904/DTD/svg10.dtd">
<svg version="1.0" xmlns="http://www.w3.org/2000/svg"
 width="512.000000pt" height="512.000000pt" viewBox="0 0 512.000000 512.000000"
 preserveAspectRatio="xMidYMid meet">
<metadata>
Created by potrace 1.14, written by Peter Selinger 2001-2017
</metadata>
<g transform="translate(0.000000,512.000000) scale(0.100000,-0.100000)"
fill="#000000" stroke="none">
<path d="M1727 4672 c-43 -5 -121 -94 -168 -187 -22 -44 -42 -91 -44 -105 -29
-144 -26 -238 11 -348 29 -89 68 -150 159 -254 55 -61 85 -152 79 -234 -7 -94
-25 -136 -97 -227 -41 -51 -46 -107 -16 -152 39 -57 120 -76 173 -42 38 25
102 111 136 181 105 218 67 467 -101 661 -80 92 -123 191 -113 261 16 113 29
147 87 217 94 115 32 249 -106 229z"/>
<path d="M2514 4666 c-34 -15 -93 -80 -132 -145 -45 -76 -73 -170 -79 -261
-11 -174 45 -325 170 -459 131 -141 131 -339 0 -482 -34 -37 -43 -78 -28 -123
18 -51 41 -74 87 -87 33 -9 46 -7 82 11 79 38 170 187 198 325 38 186 -11 356
-150 524 -72 86 -112 173 -112 241 0 87 39 185 100 252 17 18 30 35 31 38 13
68 -2 119 -45 148 -41 28 -84 34 -122 18z"/>
<path d="M3320 4664 c-111 -47 -224 -288 -214 -459 10 -165 48 -258 169 -402
69 -83 96 -143 101 -224 5 -88 -33 -195 -91 -252 -42 -43 -53 -118 -24 -165
31 -50 125 -70 174 -38 64 42 149 182 179 296 21 78 14 236 -13 320 -24 78
-80 173 -137 232 -128 135 -141 318 -34 453 49 62 63 91 61 133 -1 42 -14 66
-51 92 -39 28 -76 32 -120 14z"/>
<path d="M2407 3004 c-1 -1 -54 -5 -117 -8 -839 -48 -1627 -400 -2014 -901
-136 -176 -223 -370 -253 -564 -9 -61 -10 -233 -1 -296 53 -370 345 -608 873
-710 78 -15 145 -25 200 -31 33 -3 71 -8 85 -10 14 -2 61 -6 105 -10 44 -3 94
-7 110 -9 194 -25 2050 -26 2340 0 28 2 82 6 120 10 111 9 209 21 324 41 378
65 662 205 791 389 107 154 147 305 137 520 -7 143 -10 162 -47 275 -69 211
-174 375 -355 555 -112 111 -134 129 -279 231 -288 202 -711 372 -1116 448
-47 8 -98 18 -115 21 -51 10 -255 34 -350 41 -78 6 -433 12 -438 8z"/>
</g>
</svg>
